<svg width="100" height="100" viewBox="0 0 100 100" fill="none" xmlns="http://www.w3.org/2000/svg">
<circle cx="50" cy="50" r="50" fill="#2E3242"/>
<g filter="url(#filter0_d_369_1434)">
<path d="M26.8603 27.6923H31.7834V32.6154H26.8603V27.6923ZM41.6295 27.6923H46.5526V32.6154H41.6295V27.6923ZM46.5526 27.6923H51.4757V32.6154H46.5526V27.6923ZM61.3219 27.6923H66.2449V32.6154H61.3219V27.6923ZM66.2449 27.6923H71.168V32.6154H66.2449V27.6923ZM41.6295 47.3846H46.5526V52.3077H41.6295V47.3846ZM41.6295 52.3077H46.5526V57.2308H41.6295V52.3077ZM41.6295 57.2308H46.5526V62.1538H41.6295V57.2308ZM36.7065 62.1538H41.6295V67.0769H36.7065V62.1538ZM51.4757 67.0769H56.3988V72H51.4757V67.0769ZM71.168 47.3846H76.0911V52.3077H71.168V47.3846ZM71.168 52.3077H76.0911V57.2308H71.168V52.3077ZM71.168 57.2308H76.0911V62.1538H71.168V57.2308ZM71.168 62.1538H76.0911V67.0769H71.168V62.1538ZM56.3988 52.3077H61.3219V57.2308H56.3988V52.3077ZM56.3988 57.2308H61.3219V62.1538H56.3988V57.2308ZM21.9372 42.4615H26.8603V47.3846H21.9372V42.4615ZM26.8603 47.3846H31.7834V52.3077H26.8603V47.3846ZM26.8603 52.3077H31.7834V57.2308H26.8603V52.3077ZM21.9372 52.3077H26.8603V57.2308H21.9372V52.3077ZM56.3988 62.1538H61.3219V67.0769H56.3988V62.1538ZM31.7834 27.6923H36.7065V32.6154H31.7834V27.6923ZM21.9372 32.6154H26.8603V37.5385H21.9372V32.6154ZM21.9372 37.5385H26.8603V42.4615H21.9372V37.5385ZM31.7834 32.6154H36.7065V37.5385H31.7834V32.6154ZM36.7065 32.6154H41.6295V37.5385H36.7065V32.6154ZM36.7065 37.5385H41.6295V42.4615H36.7065V37.5385ZM56.3988 32.6154H61.3219V37.5385H56.3988V32.6154ZM51.4757 32.6154H56.3988V37.5385H51.4757V32.6154ZM51.4757 37.5385H56.3988V42.4615H51.4757V37.5385ZM56.3988 47.3846H61.3219V52.3077H56.3988V47.3846ZM41.6295 42.4615H46.5526V47.3846H41.6295V42.4615ZM56.3988 42.4615H61.3219V47.3846H56.3988V42.4615ZM71.168 42.4615H76.0911V47.3846H71.168V42.4615ZM31.7834 67.0769H36.7065V72H31.7834V67.0769ZM26.8603 67.0769H31.7834V72H26.8603V67.0769ZM26.8603 62.1538H31.7834V67.0769H26.8603V62.1538ZM71.168 32.6154H76.0911V37.5385H71.168V32.6154ZM71.168 37.5385H76.0911V42.4615H71.168V37.5385ZM71.168 67.0769H76.0911V72H71.168V67.0769ZM21.9372 62.1538H26.8603V67.0769H21.9372V62.1538Z" fill="white"/>
</g>
<defs>
<filter id="filter0_d_369_1434" x="21.9373" y="27.6923" width="58.1538" height="48.3077" filterUnits="userSpaceOnUse" color-interpolation-filters="sRGB">
<feFlood flood-opacity="0" result="BackgroundImageFix"/>
<feColorMatrix in="SourceAlpha" type="matrix" values="0 0 0 0 0 0 0 0 0 0 0 0 0 0 0 0 0 0 127 0" result="hardAlpha"/>
<feOffset dx="4" dy="4"/>
<feComposite in2="hardAlpha" operator="out"/>
<feColorMatrix type="matrix" values="0 0 0 0 0 0 0 0 0 0 0 0 0 0 0 0 0 0 0.75 0"/>
<feBlend mode="normal" in2="BackgroundImageFix" result="effect1_dropShadow_369_1434"/>
<feBlend mode="normal" in="SourceGraphic" in2="effect1_dropShadow_369_1434" result="shape"/>
</filter>
</defs>
</svg>
